<svg width="24" height="24" viewBox="0 0 24 24" fill="none" xmlns="http://www.w3.org/2000/svg">
<path d="M12 2C6.486 2 2 6.262 2 11.5C2 14.045 3.088 16.4875 5 18.2715V22.6172L9.08008 20.5781C10.0391 20.8571 11.02 21 12 21C17.514 21 22 16.738 22 11.5C22 6.262 17.514 2 12 2ZM12 4C16.411 4 20 7.365 20 11.5C20 15.635 16.411 19 12 19C11.211 19 10.4157 18.8842 9.63867 18.6582L8.88672 18.4395L8.18555 18.7891L7 19.3828V18.2715V17.4023L6.36328 16.8105C4.86128 15.4085 4 13.472 4 11.5C4 7.365 7.589 4 12 4ZM11 9L6 14L10.5 12L13 14L18 9L13.5 11L11 9Z" fill="black"/>
</svg>
