<?xml version="1.0" encoding="iso-8859-1"?>
<!-- Generator: Adobe Illustrator 17.1.0, SVG Export Plug-In . SVG Version: 6.00 Build 0)  -->
<!DOCTYPE svg PUBLIC "-//W3C//DTD SVG 1.1//EN" "http://www.w3.org/Graphics/SVG/1.1/DTD/svg11.dtd">
<svg version="1.1" id="Capa_1" xmlns="http://www.w3.org/2000/svg" xmlns:xlink="http://www.w3.org/1999/xlink" x="0px" y="0px"
	 viewBox="0 0 271.245 271.245" style="enable-background:new 0 0 271.245 271.245;" xml:space="preserve">
<path d="M270.959,204.911L257.281,85.328c-0.433-3.788-3.639-6.552-7.451-6.552h-34.563c-8.75-36-41.017-62.307-79.395-62.307
	S65.227,42.776,56.477,78.776H21.415c-3.813,0-7.019,2.764-7.451,6.552L0.286,204.959c-1.434,12.538,2.563,25.356,10.966,34.773
	c8.401,9.417,20.459,15.044,33.079,15.044h182.583c12.62,0,24.677-5.65,33.078-15.067
	C268.395,230.291,272.392,217.45,270.959,204.911z M135.872,31.469c30.044,0,55.508,19.307,63.853,47.307H72.019
	C80.364,50.776,105.828,31.469,135.872,31.469z"/>
<g>
</g>
<g>
</g>
<g>
</g>
<g>
</g>
<g>
</g>
<g>
</g>
<g>
</g>
<g>
</g>
<g>
</g>
<g>
</g>
<g>
</g>
<g>
</g>
<g>
</g>
<g>
</g>
<g>
</g>
</svg>
