<svg width="24" height="24" viewBox="0 0 24 24" fill="none" xmlns="http://www.w3.org/2000/svg">
<path fill-rule="evenodd" clip-rule="evenodd" d="M7.98091 7.07143L8.42597 6.40127L9.54027 4.72339C9.63293 4.58386 9.7893 4.5 9.95679 4.5H14.0478C14.2162 4.5 14.3733 4.5848 14.4658 4.72561L15.5614 6.3946L16.0057 7.07143H16.8153H18C19.3807 7.07143 20.5 8.19072 20.5 9.57143V17C20.5 18.3807 19.3807 19.5 18 19.5H6C4.61929 19.5 3.5 18.3807 3.5 17V9.57143C3.5 8.19072 4.61929 7.07143 6 7.07143H7.17642H7.98091ZM7.17642 5.57143L8.29073 3.89355C8.66137 3.33545 9.28683 3 9.95679 3H14.0478C14.7215 3 15.35 3.33922 15.7197 3.90244L16.8153 5.57143H18C20.2091 5.57143 22 7.36229 22 9.57143V17C22 19.2091 20.2091 21 18 21H6C3.79086 21 2 19.2091 2 17V9.57143C2 7.36229 3.79086 5.57143 6 5.57143H7.17642ZM15.5 13.2857C15.5 15.3377 13.8934 16.9286 12 16.9286C10.1066 16.9286 8.5 15.3377 8.5 13.2857C8.5 11.2337 10.1066 9.64286 12 9.64286C13.8934 9.64286 15.5 11.2337 15.5 13.2857ZM12 18.4286C14.7614 18.4286 17 16.126 17 13.2857C17 10.4454 14.7614 8.14286 12 8.14286C9.23858 8.14286 7 10.4454 7 13.2857C7 16.126 9.23858 18.4286 12 18.4286Z" fill="black"/>
</svg>
