<svg width="24" height="24" viewBox="0 0 24 24" fill="none" xmlns="http://www.w3.org/2000/svg">
<path fill-rule="evenodd" clip-rule="evenodd" d="M10.6808 2.84183C6.34969 2.84183 2.84082 6.35846 2.84082 10.6938C2.84082 15.0291 6.34969 18.5457 10.6808 18.5457C12.374 18.5457 13.9416 18.0082 15.223 17.0944L15.2705 17.1419L18.8155 20.6929L19.3454 21.2237L20.4069 20.1639L19.877 19.6331L16.3583 16.1085C17.6983 14.6996 18.5207 12.7926 18.5207 10.6938C18.5207 6.35846 15.0118 2.84183 10.6808 2.84183ZM4.34082 10.6938C4.34082 7.18449 7.1805 4.34183 10.6808 4.34183C14.181 4.34183 17.0207 7.18449 17.0207 10.6938C17.0207 14.203 14.181 17.0457 10.6808 17.0457C7.1805 17.0457 4.34082 14.203 4.34082 10.6938Z" fill="black"/>
</svg>
