<svg width="24" height="24" viewBox="0 0 24 24" fill="none" xmlns="http://www.w3.org/2000/svg">
<path fill-rule="evenodd" clip-rule="evenodd" d="M2.82446 9.57446C2.82446 5.84654 5.84654 2.82446 9.57446 2.82446H14.4255C18.1535 2.82446 21.1755 5.84654 21.1755 9.57446V14.4255C21.1755 18.1535 18.1534 21.1755 14.4255 21.1755H9.57446C5.84654 21.1755 2.82446 18.1534 2.82446 14.4255V9.57446ZM9.57446 4.32446C6.67497 4.32446 4.32446 6.67497 4.32446 9.57446V14.4255C4.32446 17.325 6.67497 19.6755 9.57446 19.6755H14.4255C17.325 19.6755 19.6755 17.325 19.6755 14.4255V9.57446C19.6755 6.67497 17.325 4.32446 14.4255 4.32446H9.57446ZM12.75 7.42021V8.17021V11.25H15.8298H16.5798V12.75H15.8298H12.75V15.8298V16.5798H11.25V15.8298V12.75H8.17021H7.42021V11.25H8.17021H11.25V8.17021V7.42021H12.75Z" fill="black"/>
</svg>
