<svg width="24" height="24" viewBox="0 0 24 24" fill="none" xmlns="http://www.w3.org/2000/svg">
<path fill-rule="evenodd" clip-rule="evenodd" d="M8.67346 3.7099C9.05347 3.25973 9.61263 3 10.2017 3H13.7983C14.3874 3 14.9465 3.25973 15.3265 3.7099L17.4545 6.23077L18.5714 6.23077C20.465 6.23077 22 7.76579 22 9.65934V17.5714C22 19.465 20.465 21 18.5714 21H5.42857C3.53502 21 2 19.465 2 17.5714V9.65934C2 7.76579 3.53502 6.23077 5.42857 6.23077L6.54545 6.23077L8.67346 3.7099ZM8.45455 12.6923C8.45455 10.6811 10.0562 9.07692 12 9.07692C13.9438 9.07692 15.5455 10.6811 15.5455 12.6923C15.5455 14.7035 13.9438 16.3077 12 16.3077C10.0562 16.3077 8.45455 14.7035 8.45455 12.6923ZM12 7.07692C8.92299 7.07692 6.45455 9.60546 6.45455 12.6923C6.45455 15.7792 8.92299 18.3077 12 18.3077C15.077 18.3077 17.5455 15.7792 17.5455 12.6923C17.5455 9.60546 15.077 7.07692 12 7.07692Z" fill="black"/>
</svg>
